<svg
              width="16"
              height="16"
              viewBox="0 0 16 16"
              fill="none"
              xmlns="http://www.w3.org/2000/svg"
            >
              <g clip-path="url(#clip0_3309_1814)">
                <path
                  d="M4.75 7.5C4.89834 7.5 5.04334 7.54399 5.16668 7.6264C5.29002 7.70881 5.38614 7.82594 5.44291 7.96299C5.49968 8.10003 5.51453 8.25083 5.48559 8.39632C5.45665 8.5418 5.38522 8.67544 5.28033 8.78033C5.17544 8.88522 5.0418 8.95665 4.89632 8.98559C4.75083 9.01453 4.60003 8.99968 4.46299 8.94291C4.32594 8.88614 4.20881 8.79001 4.1264 8.66668C4.04399 8.54334 4 8.39834 4 8.25C4 8.05109 4.07902 7.86032 4.21967 7.71967C4.36032 7.57902 4.55109 7.5 4.75 7.5ZM4.75 6.5C4.40388 6.5 4.06554 6.60264 3.77775 6.79493C3.48997 6.98722 3.26566 7.26053 3.13321 7.5803C3.00076 7.90008 2.9661 8.25194 3.03363 8.59141C3.10115 8.93087 3.26782 9.2427 3.51256 9.48744C3.75731 9.73218 4.06913 9.89885 4.40859 9.96637C4.74806 10.0339 5.09993 9.99924 5.4197 9.86679C5.73947 9.73434 6.01278 9.51003 6.20507 9.22225C6.39737 8.93446 6.5 8.59612 6.5 8.25C6.5 7.78587 6.31563 7.34075 5.98744 7.01256C5.65925 6.68437 5.21413 6.5 4.75 6.5V6.5Z"
                  fill="#515151"
                ></path>
                <path
                  d="M13.1429 6.85627H8.57143C8.26832 6.85627 7.97763 6.97669 7.76331 7.19104C7.54898 7.40539 7.42857 7.69611 7.42857 7.99924V11.4281H1.14286V4.91323L8 1.22145L14.6563 4.80226C14.9342 4.95179 15.2808 4.8471 15.4294 4.5687V4.5687C15.5774 4.29158 15.4734 3.94696 15.1968 3.798L8.26857 0.0670541C8.1859 0.0230269 8.09367 0 8 0C7.90633 0 7.8141 0.0230269 7.73143 0.0670541L0.302857 4.06744C0.211612 4.11603 0.135256 4.18846 0.0819221 4.27702C0.0285886 4.36558 0.000275834 4.46696 0 4.57034V16H1.14286V12.5711H14.8571V16H16V9.71369C16 8.95585 15.699 8.22906 15.1632 7.69319C14.6273 7.15732 13.9006 6.85627 13.1429 6.85627ZM8.57143 11.4281V7.99924H13.1429C13.5975 7.99924 14.0336 8.17987 14.355 8.50139C14.6765 8.82291 14.8571 9.25899 14.8571 9.71369V11.4281H8.57143Z"
                  fill="#515151"
                ></path>
              </g>
              <defs>
                <clipPath id="clip0_3309_1814">
                  <rect width="16" height="16" fill="white"></rect>
                </clipPath>
              </defs>
            </svg>