            <svg
              width="16"
              height="16"
              viewBox="0 0 16 16"
              fill="none"
              xmlns="http://www.w3.org/2000/svg"
            >
              <path
                fill-rule="evenodd"
                clip-rule="evenodd"
                d="M13.1222 10.3643C14.2872 9.2635 15 7.78675 15 6.16342C15 2.78206 11.9075 0.0366788 8.07692 0.000364466C8.0632 0.000121695 8.04947 0 8.03571 0C8.03156 0 8.02741 1.11033e-05 8.02326 3.32929e-05C8.01551 1.11033e-05 8.00776 0 8 0C4.13401 0 1 2.75946 1 6.16342C1 8.01553 1.92782 9.67684 3.39654 10.8067L4.98087 13.1984H4.82143C4.52556 13.1984 4.28571 13.4075 4.28571 13.6654C4.28571 13.9232 4.52556 14.1323 4.82143 14.1323H5.35714V14.8794C5.35714 15.4983 5.93278 16 6.64286 16H9.42857C10.1387 16 10.7143 15.4983 10.7143 14.8794V14.1323H11.25C11.5459 14.1323 11.7857 13.9232 11.7857 13.6654C11.7857 13.4075 11.5459 13.1984 11.25 13.1984H11.2467L13.1027 10.3966C13.1097 10.386 13.1163 10.3752 13.1222 10.3643ZM4.28571 6.16342C4.28571 8.11505 4.83761 9.85481 5.69888 10.9841C3.57128 10.1928 2.07143 8.33706 2.07143 6.16342C2.07143 3.98978 3.57128 2.13405 5.69888 1.34273C4.83761 2.47203 4.28571 4.2118 4.28571 6.16342ZM8.02602 11.3929C8.03636 11.3929 8.0467 11.3928 8.05703 11.3928C8.50053 11.3829 9.14384 11.0653 9.7408 10.0841C10.3222 9.12853 10.7143 7.74395 10.7143 6.16342C10.7143 4.5829 10.3222 3.19832 9.7408 2.24274C9.14384 1.26159 8.50053 0.943932 8.05703 0.93409C8.0467 0.934004 8.03636 0.933941 8.02602 0.933902C7.58218 0.938414 6.93282 1.25299 6.33063 2.24274C5.74923 3.19832 5.35714 4.5829 5.35714 6.16342C5.35714 7.74395 5.74923 9.12853 6.33063 10.0841C6.93282 11.0739 7.58218 11.3884 8.02602 11.3929ZM8.03571 12.3268C8.03156 12.3268 8.02741 12.3268 8.02326 12.3268C8.01551 12.3268 8.00776 12.3268 8 12.3268C7.05612 12.3268 6.15587 12.1624 5.33421 11.8642L6.21805 13.1984H10.0096L10.9721 11.7453C10.0918 12.1093 9.11126 12.3167 8.07692 12.3265C8.0632 12.3267 8.04947 12.3268 8.03571 12.3268ZM13.9286 6.16342C13.9286 4.02411 12.4757 2.19275 10.4015 1.38102C11.2462 2.51115 11.7857 4.23372 11.7857 6.16342C11.7857 8.09313 11.2462 9.8157 10.4015 10.9458C12.4757 10.1341 13.9286 8.30273 13.9286 6.16342ZM6.42857 14.8794V14.1323H9.64286V14.8794C9.64286 14.9825 9.54692 15.0661 9.42857 15.0661H6.64286C6.52451 15.0661 6.42857 14.9825 6.42857 14.8794Z"
                fill="#515151"
              ></path>
            </svg>