<svg
              width="16"
              height="16"
              viewBox="0 0 16 16"
              fill="none"
              xmlns="http://www.w3.org/2000/svg"
            >
              <g clip-path="url(#clip0_1_36655)">
                <path
                  d="M4.61875 1.84375C4.24062 1.90938 3.89688 2.09688 3.65 2.37187C3.575 2.45312 3.07188 3.19687 2.53125 4.025L1.54688 5.52812L1.4375 5.53125C1.25937 5.53437 0.95 5.61875 0.753125 5.71875C0.534375 5.82812 0.2125 6.11562 0.0875 6.30937L0 6.45V8.76562V11.0781L0.08125 11.2031C0.3 11.5344 0.65 11.8 1.01562 11.9156L1.23438 11.9844H8H14.7656L14.9844 11.9156C15.3406 11.8031 15.625 11.5938 15.8656 11.2688L16 11.0875V8.77187V6.45937L15.9031 6.30937C15.7719 6.1 15.4688 5.82812 15.2469 5.71875C15.05 5.61875 14.7375 5.53437 14.5625 5.53125C14.4531 5.53125 14.45 5.525 13.8438 4.6C13.5094 4.09062 13.0594 3.40312 12.8469 3.07812C12.4094 2.40938 12.2125 2.19375 11.8875 2.025C11.4688 1.80312 11.6281 1.8125 8.01562 1.81563C6.22813 1.81875 4.7 1.83125 4.61875 1.84375ZM11.3344 2.76562C11.425 2.79375 11.5437 2.8625 11.6188 2.93125C11.7125 3.01562 13.0344 4.97813 13.325 5.45937C13.3438 5.49062 12.2688 5.5 8 5.5H2.65L2.7125 5.39687C3.0375 4.85625 4.27813 3.02187 4.37813 2.92812C4.61562 2.7125 4.45312 2.72188 7.9875 2.72188C10.7375 2.71875 11.1969 2.725 11.3344 2.76562ZM14.8313 6.52187C14.9812 6.60313 15.1781 6.80937 15.2375 6.95625C15.2719 7.04063 15.2812 7.37187 15.2812 8.75625C15.2812 10.3969 15.2781 10.4594 15.2156 10.5938C15.1344 10.775 15.0219 10.8937 14.8281 10.9937L14.6719 11.0781H8C1.67813 11.0781 1.32187 11.075 1.20938 11.0219C1.0375 10.9406 0.859375 10.7687 0.784375 10.6094C0.71875 10.4719 0.71875 10.4312 0.71875 8.76562C0.71875 6.86875 0.7125 6.93437 0.93125 6.70937C1.04688 6.5875 1.16875 6.50938 1.3125 6.46562C1.35625 6.45312 4.38438 6.44375 8.04688 6.44688L14.7031 6.45312L14.8313 6.52187Z"
                  fill="#515151"
                ></path>
                <path
                  d="M2.48085 7.26585C2.20272 7.32522 1.98085 7.45022 1.7621 7.66897C0.91835 8.51585 1.30585 9.96585 2.45897 10.2658C3.01835 10.4127 3.61835 10.1908 3.98398 9.70022C4.18397 9.43147 4.25585 9.23147 4.27148 8.85647C4.29023 8.50022 4.24647 8.29397 4.0871 7.99397C3.8996 7.63772 3.47148 7.32835 3.06523 7.25022C2.85273 7.2096 2.71835 7.21272 2.48085 7.26585ZM3.01523 8.1846C3.19023 8.26272 3.32773 8.43147 3.3746 8.61897C3.48085 9.06585 3.06835 9.50335 2.65898 9.37835C2.0996 9.21272 2.05585 8.4096 2.59335 8.17522C2.74022 8.11272 2.86523 8.11585 3.01523 8.1846Z"
                  fill="#515151"
                ></path>
                <path
                  d="M12.9067 7.25291C12.4786 7.33416 12.0598 7.67791 11.8536 8.11228C11.7473 8.33728 11.738 8.38103 11.7255 8.69978C11.713 9.07791 11.763 9.30291 11.9255 9.58103C12.1098 9.89666 12.4786 10.1685 12.8473 10.2654C13.6098 10.4685 14.4317 9.96541 14.6411 9.17166C14.9255 8.07478 13.9942 7.04353 12.9067 7.25291ZM13.3505 8.15603C13.6098 8.22791 13.7817 8.47166 13.7817 8.76541C13.7817 9.38103 13.0598 9.63103 12.7192 9.13416C12.4973 8.80916 12.6255 8.34666 12.9848 8.18416C13.1286 8.11853 13.1911 8.11228 13.3505 8.15603Z"
                  fill="#515151"
                ></path>
                <path
                  d="M4.98438 7.66875C4.81563 7.74063 4.71875 7.8875 4.71875 8.06563C4.71875 8.25938 4.77812 8.38125 4.91875 8.46563L5.025 8.53125L8.02813 8.525L11.0312 8.51563L11.1438 8.4C11.2438 8.30313 11.2625 8.25938 11.275 8.11875C11.2844 7.98125 11.275 7.93438 11.2125 7.84375C11.0563 7.60938 11.2625 7.625 8 7.625C5.64062 7.62813 5.05938 7.63438 4.98438 7.66875Z"
                  fill="#515151"
                ></path>
                <path
                  d="M4.91563 8.99988C4.78438 9.07801 4.71875 9.21238 4.71875 9.40301C4.71875 9.52488 4.7375 9.57801 4.80313 9.65926C4.96563 9.85301 4.81875 9.84363 8.00625 9.84363C11.2625 9.84363 11.0563 9.85613 11.2125 9.62488C11.275 9.53426 11.2844 9.48738 11.275 9.34988C11.2625 9.20926 11.2438 9.16551 11.1438 9.06863L11.0312 8.95301L8.02188 8.94363C5.08437 8.93738 5.0125 8.93738 4.91563 8.99988Z"
                  fill="#515151"
                ></path>
                <path
                  d="M1.2625 12.0969C1.20625 12.1125 1.11875 12.175 1.06563 12.2344C0.98125 12.3312 0.96875 12.3687 0.96875 12.5281C0.96875 12.9 1.175 13.3531 1.48438 13.6656C2.325 14.5156 3.75312 14.2875 4.29375 13.2156C4.425 12.9562 4.5125 12.6 4.4875 12.4531C4.4375 12.1969 4.16563 12.025 3.91563 12.0906C3.74375 12.1375 3.6375 12.2687 3.59375 12.4906C3.49375 12.9719 3.15 13.2844 2.72188 13.2812C2.30938 13.275 1.96562 12.9812 1.86563 12.5437C1.84062 12.4406 1.80625 12.325 1.78438 12.2875C1.7 12.1281 1.45312 12.0375 1.2625 12.0969Z"
                  fill="#515151"
                ></path>
                <path
                  d="M11.8281 12.085C11.6094 12.1412 11.4812 12.36 11.5125 12.6287C11.5531 13.0162 11.7687 13.4287 12.0875 13.7256C13.0406 14.6037 14.5656 14.1725 14.9594 12.9162C15.0937 12.485 15.0312 12.2412 14.7625 12.1225C14.575 12.0381 14.425 12.0694 14.2781 12.2162C14.1969 12.2975 14.1594 12.3662 14.1406 12.4694C14.0875 12.8006 13.8687 13.0975 13.5875 13.2194C13.3844 13.3069 13.0843 13.2944 12.8875 13.1944C12.6437 13.0694 12.4406 12.7756 12.3906 12.4756C12.3469 12.2006 12.0875 12.0225 11.8281 12.085Z"
                  fill="#515151"
                ></path>
              </g>
              <defs>
                <clipPath id="clip0_1_36655">
                  <rect width="16" height="16" fill="white"></rect>
                </clipPath>
              </defs>
            </svg>